<svg xmlns="http://www.w3.org/2000/svg" viewBox="0 0 256 256"><rect width="256" height="256" rx="64" fill="#50c878"/><path d="M63.9,79.1c-3.7-5.4-9.9-8.7-16.4-8.7h-15.9l13.7,17.8h2.3c.7,0,1.3.3,1.6.9l47.1,69.4c12,17.5,35.9,22,53.4,9.9,3.9-2.7,7.3-6,9.9-9.9l47.1-69.4c.1-.2.3-.4.5-.5.9-.6,2.1-.4,2.7.5v63.7c0,8.2-6.7,14.9-14.9,14.9h-7.3v17.8h7.3c18.1,0,32.7-14.6,32.7-32.7v-63.7c-.5-10.8-9.6-19.1-20.4-18.7-6.2.3-11.9,3.5-15.4,8.7l-47.2,69.6c-1.4,1.9-3,3.6-4.9,4.9-9.3,6.6-22.2,4.4-28.8-4.9l-47.2-69.6h0ZM46,152.9v-34l-17.8,24v10c0,18.1,14.6,32.7,32.7,32.7h7.3v-17.8h-7.3c-8.2,0-14.9-6.7-14.9-14.9Z" fill="#fff"/></svg>